<svg width="70" height="70" viewBox="0 0 70 70" fill="none" xmlns="http://www.w3.org/2000/svg">
<path d="M68.927 33.6411V3.93559C68.927 3.36848 68.4674 2.90869 67.9001 2.90869H2.1C1.53276 2.90869 1.07311 3.36848 1.07311 3.93559V33.6412C0.435723 33.9786 0 34.648 0 35.418V37.5258C0 38.2958 0.435723 38.9653 1.07311 39.3027V66.0643C1.07311 66.6314 1.53289 67.0912 2.1 67.0912H6.7654H11.3462H11.6569H23.1602H34.9745H46.7887H58.3432H58.6027H63.2346H67.9C68.4672 67.0912 68.9269 66.6314 68.9269 66.0643V39.3027C69.5643 38.9652 70 38.2958 70 37.5258V35.418C70.0001 34.648 69.5644 33.9786 68.927 33.6411ZM66.4858 4.96262C66.0744 5.56747 65.315 6.27594 64.113 7.03091C64.0983 7.0402 64.0832 7.04936 64.0685 7.05866C63.9987 7.10214 63.9271 7.14575 63.8545 7.1895C63.8213 7.20946 63.788 7.22929 63.7544 7.24925C63.6992 7.28206 63.6424 7.31487 63.5854 7.34782C63.5395 7.37434 63.4937 7.40087 63.4466 7.42753C63.4015 7.45309 63.3549 7.4788 63.3087 7.50436C63.2513 7.53622 63.1945 7.56808 63.1356 7.60007C63.1254 7.60567 63.1146 7.61128 63.1043 7.61675C62.9556 7.69714 62.8015 7.77753 62.6434 7.85819C62.6009 7.87993 62.5592 7.90153 62.5159 7.92314C62.4553 7.95362 62.393 7.98397 62.3312 8.01446C62.2743 8.04235 62.2175 8.07038 62.1594 8.09827C62.1039 8.12507 62.0476 8.15173 61.9911 8.17853C61.919 8.21271 61.8459 8.24689 61.7718 8.28106C61.726 8.30226 61.6801 8.32345 61.6336 8.34464C61.5326 8.39071 61.4298 8.43679 61.3253 8.48286C61.3026 8.49298 61.2803 8.50296 61.2574 8.51308C60.8375 8.6971 60.3908 8.88167 59.9153 9.06611C59.9152 9.06611 59.9152 9.06624 59.9151 9.06624C59.3004 9.30468 58.644 9.54066 57.9421 9.77253C56.0422 10.3999 53.9944 10.9435 51.8391 11.3995C51.8049 11.4032 51.7707 11.4082 51.7364 11.4155C49.6913 11.8434 47.5388 12.1952 45.3389 12.4612C45.3111 12.4647 45.2839 12.4704 45.2566 12.4759C41.9447 12.8709 38.4897 13.0772 35.0001 13.0772C31.5105 13.0772 28.0553 12.871 24.7434 12.4762C24.7162 12.4705 24.6891 12.4648 24.6614 12.4615C22.4605 12.1953 20.3081 11.8436 18.2639 11.4158C18.2296 11.4085 18.1954 11.4035 18.1612 11.3998C16.0058 10.9438 13.9581 10.4002 12.0582 9.77281C11.3563 9.54107 10.6998 9.30495 10.0852 9.06652C10.0851 9.06652 10.0849 9.06638 10.0849 9.06638C9.60957 8.88208 9.16291 8.69751 8.74318 8.51349C8.72008 8.50337 8.69752 8.49312 8.67455 8.483C8.57023 8.43693 8.46769 8.39099 8.36679 8.34505C8.32031 8.32386 8.27437 8.30267 8.22857 8.28148C8.15447 8.2473 8.08146 8.21298 8.00927 8.17894C7.95281 8.15214 7.89648 8.12548 7.84097 8.09868C7.78287 8.07065 7.72613 8.04276 7.66925 8.01487C7.60732 7.98439 7.54511 7.95403 7.48455 7.92354C7.44134 7.90181 7.39951 7.88021 7.35699 7.8586C7.20058 7.7789 7.048 7.69919 6.90062 7.61962C6.88872 7.61319 6.87628 7.60677 6.86453 7.60034C6.80587 7.56862 6.74941 7.5369 6.69226 7.50505C6.64591 7.47935 6.59902 7.45351 6.55376 7.4278C6.50673 7.40114 6.46093 7.37462 6.41499 7.34809C6.35798 7.31515 6.30138 7.28233 6.24601 7.24952C6.21224 7.22956 6.17902 7.2096 6.14593 7.18977C6.0732 7.14602 6.00169 7.10241 5.93196 7.05893C5.91706 7.04964 5.90216 7.04048 5.88739 7.03118C4.68522 6.27608 3.92589 5.56747 3.5145 4.96276H66.4858V4.96262ZM3.1269 7.5689C3.44327 7.84274 3.80626 8.12165 4.21765 8.40411C5.3088 9.15907 6.76308 9.94439 8.69369 10.7286C8.69219 17.18 6.81066 24.3591 5.20052 29.321C5.02552 29.8605 5.32083 30.4398 5.86046 30.6148C6.39913 30.7895 6.97896 30.4944 7.15423 29.955C8.74783 25.0439 10.5982 18.0067 10.738 11.494C10.9588 11.5704 11.1833 11.6468 11.4141 11.723C13.0885 12.2759 14.872 12.7661 16.7399 13.1905C14.5695 19.9247 11.0308 25.4766 8.37855 29.0141C8.03839 29.4679 8.13041 30.1115 8.58418 30.4517C8.76888 30.5902 8.98504 30.657 9.19941 30.657C9.51168 30.657 9.82012 30.5151 10.0219 30.2461C12.7962 26.5458 16.5094 20.7135 18.761 13.6173C20.1754 13.8943 21.6307 14.1348 23.117 14.3379C20.9417 19.6674 16.5899 25.157 13.2013 28.9371C12.8227 29.3594 12.8582 30.0087 13.2806 30.3873C13.7031 30.766 14.3522 30.7303 14.7308 30.3081C21.049 23.2599 23.9186 17.9773 25.2219 14.5973C28.3948 14.9482 31.6837 15.1308 34.9999 15.1308C38.3165 15.1308 41.6055 14.9482 44.7785 14.5973C46.9989 20.3725 51.6693 26.2934 55.278 30.3183C55.6564 30.7404 56.3057 30.7759 56.7281 30.3973C57.1505 30.0187 57.1859 29.3694 56.8072 28.9471C53.4154 25.1644 49.0594 19.6704 46.8829 14.338C48.3693 14.1351 49.8245 13.8946 51.2389 13.6175C53.4932 20.7221 57.2125 26.5603 59.9916 30.2643C60.1934 30.5332 60.5016 30.675 60.8138 30.675C61.0284 30.675 61.2447 30.608 61.4294 30.4693C61.883 30.1289 61.9749 29.4852 61.6344 29.0316C58.9776 25.4906 55.433 19.9328 53.26 13.1904C55.1277 12.766 56.9113 12.2757 58.5857 11.7228C58.8165 11.6467 59.041 11.5703 59.2618 11.4938C59.4017 18.0032 61.2501 25.0358 62.8421 29.9436C63.0171 30.4833 63.5964 30.7783 64.1358 30.6037C64.6752 30.4287 64.9708 29.8494 64.7958 29.31C63.1873 24.3512 61.3078 17.1767 61.3063 10.7285C63.2369 9.94425 64.6912 9.15894 65.7824 8.40398C66.1937 8.12151 66.5569 7.84274 66.8731 7.56876V33.4077H61.1766C60.0682 33.4077 59.1664 34.3095 59.1664 35.4179V37.5257C59.1664 38.0719 59.3861 38.5672 59.7409 38.9299C59.1191 40.8199 58.3778 43.1923 57.6673 45.762H12.333C11.6223 43.1923 10.8809 40.8195 10.2593 38.9299C10.614 38.5672 10.8338 38.0719 10.8338 37.5257V35.4179C10.8338 34.3095 9.93195 33.4077 8.82357 33.4077H3.1269V7.5689ZM2.05393 37.4821V35.4618H8.77982V37.4821H4.87663H2.1H2.05393ZM7.33785 64.703C7.22423 64.9093 7.00494 65.0374 6.7654 65.0374H3.1269V39.536H4.11073C7.85109 52.1993 9.05832 61.5788 7.33785 64.703ZM12.3731 65.0374V59.3691C12.3731 58.1486 13.3661 57.1557 14.5866 57.1557H19.92C21.1405 57.1557 22.1333 58.1486 22.1333 59.3691V65.0374H12.3731ZM24.1872 65.0374V59.3691C24.1872 58.1486 25.1802 57.1557 26.4007 57.1557H31.734C32.9546 57.1557 33.9475 58.1486 33.9475 59.3691V65.0374H24.1872ZM36.0015 65.0374V59.3691C36.0015 58.1486 36.9945 57.1557 38.2149 57.1557H43.5482C44.7688 57.1557 45.7616 58.1486 45.7616 59.3691V65.0374H36.0015ZM57.5758 65.0374H47.8156V59.3691C47.8156 58.1486 48.8086 57.1557 50.029 57.1557H55.3623C56.5828 57.1557 57.5758 58.1486 57.5758 59.3691V65.0374ZM59.6297 65.0372V59.3691C59.6297 57.0161 57.7154 55.1017 55.3625 55.1017H50.0292C48.7336 55.1017 47.5721 55.6828 46.7887 56.5972C46.0054 55.6828 44.8437 55.1017 43.5482 55.1017H38.2149C36.9195 55.1017 35.7578 55.6828 34.9745 56.597C34.1912 55.6828 33.0295 55.1017 31.734 55.1017H26.4007C25.1053 55.1017 23.9436 55.6828 23.1602 56.597C22.3769 55.6828 21.2152 55.1017 19.9198 55.1017H14.5866C12.2335 55.1017 10.3191 57.0161 10.3191 59.3691V65.0374H9.44182C11.5232 59.7768 8.54904 47.4247 6.25107 39.536H8.29652C9.26682 42.4828 10.5367 46.6323 11.5096 50.8458C11.6371 51.3984 12.1885 51.7429 12.7413 51.6154C13.2939 51.4878 13.6384 50.9364 13.5108 50.3837C13.3118 49.5217 13.1007 48.6628 12.8823 47.8161H57.1181C56.8975 48.671 56.6844 49.5385 56.4837 50.4091C56.3563 50.9617 56.7009 51.5131 57.2537 51.6405C57.3313 51.6585 57.4089 51.6671 57.4854 51.6671C57.9529 51.6671 58.3756 51.3458 58.4853 50.8707C59.4591 46.6478 60.7315 42.489 61.7039 39.5359H63.7493C61.4514 47.4245 58.4772 59.7767 60.5586 65.0372H59.6297ZM66.8732 65.0374H63.2349C62.9953 65.0374 62.776 64.9093 62.6624 64.703C60.942 61.5789 62.1492 52.1993 65.8894 39.536H66.8732V65.0374ZM67.9462 37.4821H67.9001H65.1235H61.2203V35.4618H67.9462V37.4821Z" fill="white"/>
</svg>
