<svg width="63" height="55" viewBox="0 0 63 55" fill="none" xmlns="http://www.w3.org/2000/svg">
<path d="M37.8622 27.1461C37.8307 27.082 37.8014 27.0289 37.7741 26.9864C37.323 26.2196 36.461 25.2785 35.1885 24.1627L35.1617 24.1371L35.1482 24.1246L35.1346 24.1118H35.1209C34.5434 23.5922 34.1777 23.2428 34.0246 23.064C33.7444 22.7233 33.6816 22.3784 33.8347 22.029C33.9429 21.7649 34.3494 21.2074 35.0531 20.3555C35.4232 19.9041 62.5001 38.5026 35.9329 19.2696C37.4943 17.3106 62.7078 23.6091 62.5001 23.064L37.8829 15.3861C37.8287 15.3094 37.6888 15.2393 37.4635 15.1753C37.2376 15.1114 36.9489 15.1008 36.5968 15.1434L32.6982 15.1688C32.6351 15.1477 32.5449 15.1497 32.4274 15.1753C32.3101 15.2009 32.2514 15.2137 32.2514 15.2137L32.1835 15.2457L32.1297 15.2841C32.0845 15.3096 32.0349 15.3543 31.9807 15.4182C31.9268 15.4818 31.8817 15.5566 31.8456 15.6417C31.4212 16.6723 43.5417 8.11682 43.0001 9.00256C42.6662 9.53072 29.7564 19.5021 29.4763 19.8897C29.1966 20.2771 28.962 20.5626 28.7726 20.7455C28.5829 20.9287 28.4118 21.0754 28.2581 21.1863C28.1046 21.2972 27.9874 21.344 27.9063 21.3269C27.825 21.3097 27.7484 21.2927 27.6759 21.2757C27.5496 21.199 27.4481 21.0947 27.3715 20.9627C27.2946 20.8307 27.2428 20.6645 27.2157 20.4644C27.1888 20.2641 27.1729 20.0918 27.1683 19.947C27.1641 19.8023 27.1661 19.5977 27.1752 19.3337C27.1846 19.0695 27.1888 18.8908 27.1888 18.7971C27.1888 18.4734 27.1955 18.1221 27.2089 17.743C27.2226 17.364 27.2336 17.0637 27.2429 16.8425C27.2521 16.621 27.2563 16.3867 27.2563 16.1397C27.2563 15.8927 27.2404 15.699 27.2089 15.5584C27.1778 15.418 27.1301 15.2817 27.0672 15.1495C27.0039 15.0175 26.9112 14.9154 26.7896 14.8429C26.6678 14.7705 26.5164 14.7131 26.3362 14.6704C25.8578 14.5682 25.2487 14.5129 24.5085 14.5044C22.83 14.4874 24.9868 -0.218982 24.5085 0.00247627C24.319 0.0960444 20.9121 15.0325 20.7588 15.1942C20.5963 15.3817 20.5736 15.484 20.6909 15.5008C21.2325 15.5774 21.6159 15.7605 21.8415 16.0501L21.9229 16.2035C21.9861 16.3142 22.0493 16.5102 22.1125 16.7913C22.1756 17.0723 22.2163 17.3831 22.2342 17.7237C22.2793 18.3455 22.2793 18.8779 22.2342 19.3207C22.189 19.7637 22.1464 20.1086 22.1056 20.3556C22.0649 20.6026 22.004 20.8027 21.9229 20.956C21.8415 21.1093 21.7874 21.203 21.7603 21.237C21.7333 21.271 21.7107 21.2925 21.6928 21.3009C21.5755 21.3433 21.4535 21.3649 21.3272 21.3649C21.2007 21.3649 21.0474 21.3052 20.8669 21.1859C20.6865 21.0666 20.4993 20.9027 20.3052 20.694C20.1112 20.4853 19.8923 20.1936 19.6485 19.8189C19.405 19.4441 19.1523 19.0013 18.8905 18.4902L18.674 18.1196C18.5386 17.8812 18.3537 17.5341 18.1191 17.0785C17.8843 16.6227 17.6767 16.1819 17.4963 15.756C17.4242 15.5771 17.3159 15.441 17.1715 15.3473L17.1037 15.3088C17.0587 15.2748 16.9864 15.2387 16.8872 15.2002C16.7879 15.1618 16.6842 15.1342 16.5758 15.1173L12.8667 15.1427C12.4876 15.1427 12.2305 15.2237 12.095 15.3856L12.0408 15.4621C12.0138 15.5048 12.0001 15.5729 12.0001 15.6666C12.0001 15.7603 -0.0540122 -0.133673 0.000182194 0.00249564C0.541652 1.20353 13.2117 18.3709 13.8479 19.4866C14.4841 20.6023 15.0369 21.5011 15.5061 22.1821C15.9754 22.8636 16.4537 23.5067 16.9411 24.1113C17.4284 24.716 17.751 25.1036 17.9089 25.2739C18.0669 25.4444 18.191 25.572 18.2813 25.6571L18.6198 25.9637C18.8363 26.1682 19.1544 26.413 19.5741 26.6983C19.9938 26.9837 -7.49984 28.4813 20.9684 27.5418C21.4784 27.8184 11.3232 44.828 12.0002 45.0025C12.677 45.1773 24.0842 28.4635 24.725 28.4297H26.2818C26.5976 28.4039 26.8368 28.3102 26.9994 28.1485L27.0532 28.0845C27.0894 28.0337 27.1233 27.9547 27.1546 27.8484C27.1863 27.7419 27.202 27.6247 27.202 27.4971C27.1928 27.1309 27.2223 26.8009 27.2899 26.5071C27.3573 26.2134 27.4342 25.9919 27.5202 25.8427C27.6062 25.6937 27.7032 25.568 27.8112 25.4661C27.9194 25.3639 27.9965 25.302 28.0417 25.2807C28.0867 25.2593 28.1225 25.2447 28.1496 25.236C28.3662 25.1679 28.6211 25.2339 28.9147 25.4342C29.208 25.6344 29.4832 25.8815 29.7406 26.1752C29.9978 26.4692 30.3068 26.7991 30.6677 27.1652C31.0289 27.5315 31.3447 27.8038 31.6153 27.983L31.886 28.1363C32.0667 28.2386 32.3013 28.3323 32.5902 28.4174C32.8785 28.5025 33.1311 28.5238 33.3481 28.4813L43.0001 54.0026C43.3429 54.0026 37.4229 28.3767 37.6121 28.2704C37.8016 28.164 37.9142 28.0467 37.9506 27.9191C37.9868 27.7914 37.9887 27.6465 37.9574 27.4845C37.9253 27.3229 37.8937 27.2099 37.8622 27.1461Z" fill="#D1A954"/>
</svg>
